STARTFONT 2.1
COMMENT $XConsortium: lubR10.bdf,v 1.9 94/04/02 16:25:14 gildea Exp $
COMMENT  (c) Copyright Bigelow & Holmes 1986, 1985. Lucida is a registered
COMMENT  trademark of Bigelow & Holmes. See LEGAL NOTICE file for terms 
COMMENT  of the license. 
COMMENT  
COMMENT  Translation to ISO8859-2 by Cub Soft;  Petr.Kolar@vslib.cz
COMMENT  
FONT -B&H-LucidaBright-Medium-R-Normal--14-100-100-100-P-80-ISO8859-2
SIZE 10 100 100
FONTBOUNDINGBOX 22 16 -8 -3
STARTPROPERTIES 20
COMMENT Begin LogicalFontDescription
FONTNAME_REGISTRY ""
FOUNDRY "B&H"
FAMILY_NAME "LucidaBright"
WEIGHT_NAME "Medium"
SLANT "R"
SETWIDTH_NAME "Normal"
ADD_STYLE_NAME ""
PIXEL_SIZE 14
POINT_SIZE 100
RESOLUTION_X 100
RESOLUTION_Y 100
SPACING "P"
AVERAGE_WIDTH 80
CHARSET_REGISTRY "ISO8859"
CHARSET_ENCODING "2"
COMMENT END LogicalFontDescription
FONT_ASCENT 13
FONT_DESCENT 3
DEFAULT_CHAR 0
COPYRIGHT "Copyright Bigelow & Holmes 1986, 1985., Copyright 1996 Cub Soft"
FACE_NAME "Lucida Bright"
ENDPROPERTIES
CHARS 191
STARTCHAR space
ENCODING 32
SWIDTH 333 0
DWIDTH 4 0
BBX 1 1 0 0
BITMAP
00
ENDCHAR
STARTCHAR exclam
ENCODING 33
SWIDTH 265 0
DWIDTH 4 0
BBX 1 10 1 0
BITMAP
80
80
80
80
80
80
80
00
00
80
ENDCHAR
STARTCHAR quotedbl
ENCODING 34
SWIDTH 386 0
DWIDTH 5 0
BBX 3 3 1 7
BITMAP
a0
a0
a0
ENDCHAR
STARTCHAR numbersign
ENCODING 35
SWIDTH 608 0
DWIDTH 9 0
BBX 9 10 0 0
BITMAP
0900
1a00
1200
7f80
1200
2400
ff00
2400
2c00
4800
ENDCHAR
STARTCHAR dollar
ENCODING 36
SWIDTH 608 0
DWIDTH 9 0
BBX 5 13 2 -2
BITMAP
20
78
a8
a8
a0
60
30
28
a8
a8
f0
20
20
ENDCHAR
STARTCHAR percent
ENCODING 37
SWIDTH 675 0
DWIDTH 9 0
BBX 11 10 0 0
BITMAP
7060
88c0
8980
8b00
7600
0dc0
1a20
3220
6220
c1c0
ENDCHAR
STARTCHAR ampersand
ENCODING 38
SWIDTH 690 0
DWIDTH 10 0
BBX 10 10 0 0
BITMAP
1c00
2200
2200
3200
7c00
89c0
8480
8280
c100
7fc0
ENDCHAR
STARTCHAR apostrophe
ENCODING 39
SWIDTH 265 0
DWIDTH 4 0
BBX 2 3 1 7
BITMAP
c0
40
c0
ENDCHAR
STARTCHAR parenleft
ENCODING 40
SWIDTH 316 0
DWIDTH 4 0
BBX 3 13 1 -3
BITMAP
20
40
40
80
80
80
80
80
80
80
40
40
20
ENDCHAR
STARTCHAR parenright
ENCODING 41
SWIDTH 316 0
DWIDTH 4 0
BBX 3 13 1 -3
BITMAP
80
40
40
20
20
20
20
20
20
20
40
80
80
ENDCHAR
STARTCHAR asterisk
ENCODING 42
SWIDTH 470 0
DWIDTH 7 0
BBX 5 5 1 5
BITMAP
20
a8
50
50
50
ENDCHAR
STARTCHAR plus
ENCODING 43
SWIDTH 608 0
DWIDTH 9 0
BBX 9 8 0 0
BITMAP
0800
0800
0800
0800
ff80
0800
0800
0800
ENDCHAR
STARTCHAR comma
ENCODING 44
SWIDTH 265 0
DWIDTH 4 0
BBX 2 5 1 -3
BITMAP
c0
c0
40
40
80
ENDCHAR
STARTCHAR minus
ENCODING 45
SWIDTH 608 0
DWIDTH 9 0
BBX 8 1 0 3
BITMAP
ff
ENDCHAR
STARTCHAR period
ENCODING 46
SWIDTH 265 0
DWIDTH 4 0
BBX 2 1 1 0
BITMAP
c0
ENDCHAR
STARTCHAR slash
ENCODING 47
SWIDTH 512 0
DWIDTH 7 0
BBX 7 13 0 -3
BITMAP
02
04
04
08
08
18
10
30
20
20
40
40
80
ENDCHAR
STARTCHAR zero
ENCODING 48
SWIDTH 608 0
DWIDTH 9 0
BBX 7 10 1 0
BITMAP
38
44
82
82
82
82
82
82
44
38
ENDCHAR
STARTCHAR one
ENCODING 49
SWIDTH 608 0
DWIDTH 9 0
BBX 5 10 2 0
BITMAP
e0
20
20
20
20
20
20
20
20
f8
ENDCHAR
STARTCHAR two
ENCODING 50
SWIDTH 608 0
DWIDTH 9 0
BBX 6 10 1 0
BITMAP
78
8c
84
04
0c
18
20
40
80
fc
ENDCHAR
STARTCHAR three
ENCODING 51
SWIDTH 608 0
DWIDTH 9 0
BBX 6 10 1 0
BITMAP
f8
84
84
04
78
0c
04
84
8c
f8
ENDCHAR
STARTCHAR four
ENCODING 52
SWIDTH 608 0
DWIDTH 9 0
BBX 7 10 1 0
BITMAP
0c
0c
14
24
44
c4
fe
04
04
0e
ENDCHAR
STARTCHAR five
ENCODING 53
SWIDTH 608 0
DWIDTH 9 0
BBX 5 10 2 0
BITMAP
f8
80
80
e0
10
08
08
88
90
f0
ENDCHAR
STARTCHAR six
ENCODING 54
SWIDTH 608 0
DWIDTH 9 0
BBX 7 10 1 0
BITMAP
3e
42
c2
80
bc
c2
82
82
46
3c
ENDCHAR
STARTCHAR seven
ENCODING 55
SWIDTH 608 0
DWIDTH 9 0
BBX 6 10 2 0
BITMAP
fc
04
08
10
10
20
60
40
c0
80
ENDCHAR
STARTCHAR eight
ENCODING 56
SWIDTH 608 0
DWIDTH 9 0
BBX 7 10 1 0
BITMAP
7c
c6
82
c2
7c
8c
82
82
c6
7c
ENDCHAR
STARTCHAR nine
ENCODING 57
SWIDTH 608 0
DWIDTH 9 0
BBX 7 10 1 0
BITMAP
78
c4
82
82
86
7a
02
84
84
f8
ENDCHAR
STARTCHAR colon
ENCODING 58
SWIDTH 265 0
DWIDTH 4 0
BBX 1 7 1 0
BITMAP
80
00
00
00
00
00
80
ENDCHAR
STARTCHAR semicolon
ENCODING 59
SWIDTH 265 0
DWIDTH 4 0
BBX 1 10 1 -3
BITMAP
80
00
00
00
00
00
80
80
80
80
ENDCHAR
STARTCHAR less
ENCODING 60
SWIDTH 608 0
DWIDTH 9 0
BBX 8 8 0 0
BITMAP
01
06
18
e0
60
18
06
01
ENDCHAR
STARTCHAR equal
ENCODING 61
SWIDTH 608 0
DWIDTH 9 0
BBX 8 4 0 2
BITMAP
ff
00
00
ff
ENDCHAR
STARTCHAR greater
ENCODING 62
SWIDTH 608 0
DWIDTH 9 0
BBX 8 8 0 0
BITMAP
80
60
18
06
07
18
60
80
ENDCHAR
STARTCHAR question
ENCODING 63
SWIDTH 480 0
DWIDTH 7 0
BBX 5 10 1 0
BITMAP
f0
88
88
08
10
20
20
20
00
20
ENDCHAR
STARTCHAR at
ENCODING 64
SWIDTH 873 0
DWIDTH 12 0
BBX 11 10 1 0
BITMAP
0f80
30c0
6720
4a20
9220
9220
9740
9dc0
6200
3c00
ENDCHAR
STARTCHAR A
ENCODING 65
SWIDTH 744 0
DWIDTH 10 0
BBX 10 10 0 0
BITMAP
0800
0c00
1c00
1400
1200
2200
3f00
4100
4180
e3c0
ENDCHAR
STARTCHAR B
ENCODING 66
SWIDTH 609 0
DWIDTH 9 0
BBX 7 10 1 0
BITMAP
fc
42
42
44
7c
46
42
42
46
fc
ENDCHAR
STARTCHAR C
ENCODING 67
SWIDTH 695 0
DWIDTH 10 0
BBX 8 10 1 0
BITMAP
1f
61
41
80
80
80
80
40
61
3e
ENDCHAR
STARTCHAR D
ENCODING 68
SWIDTH 768 0
DWIDTH 11 0
BBX 9 10 1 0
BITMAP
fe00
4300
4180
4080
4080
4080
4080
4080
4100
fe00
ENDCHAR
STARTCHAR E
ENCODING 69
SWIDTH 566 0
DWIDTH 8 0
BBX 6 10 1 0
BITMAP
fc
44
40
48
78
48
40
40
44
fc
ENDCHAR
STARTCHAR F
ENCODING 70
SWIDTH 548 0
DWIDTH 8 0
BBX 7 10 0 0
BITMAP
fe
42
40
44
7c
44
40
40
40
f0
ENDCHAR
STARTCHAR G
ENCODING 71
SWIDTH 732 0
DWIDTH 10 0
BBX 9 10 1 0
BITMAP
1f00
6100
4100
8000
8000
8380
8100
4100
6100
3f00
ENDCHAR
STARTCHAR H
ENCODING 72
SWIDTH 771 0
DWIDTH 11 0
BBX 10 10 0 0
BITMAP
e1c0
4080
4080
4080
7f80
4080
4080
4080
4080
e1c0
ENDCHAR
STARTCHAR I
ENCODING 73
SWIDTH 325 0
DWIDTH 5 0
BBX 3 10 1 0
BITMAP
e0
40
40
40
40
40
40
40
40
e0
ENDCHAR
STARTCHAR J
ENCODING 74
SWIDTH 422 0
DWIDTH 6 0
BBX 5 13 0 -3
BITMAP
38
10
10
10
10
10
10
10
10
10
10
90
e0
ENDCHAR
STARTCHAR K
ENCODING 75
SWIDTH 708 0
DWIDTH 10 0
BBX 10 10 0 0
BITMAP
e780
4300
4400
5800
7000
5000
4c00
4600
4300
e7c0
ENDCHAR
STARTCHAR L
ENCODING 76
SWIDTH 557 0
DWIDTH 8 0
BBX 7 10 0 0
BITMAP
e0
40
40
40
40
40
40
40
42
fe
ENDCHAR
STARTCHAR M
ENCODING 77
SWIDTH 860 0
DWIDTH 12 0
BBX 11 10 1 0
BITMAP
e0e0
60c0
51c0
5140
5940
4a40
4a40
4440
4440
e0e0
ENDCHAR
STARTCHAR N
ENCODING 78
SWIDTH 751 0
DWIDTH 11 0
BBX 9 10 1 0
BITMAP
c380
6100
7100
5100
4900
4d00
4500
4300
4100
e100
ENDCHAR
STARTCHAR O
ENCODING 79
SWIDTH 777 0
DWIDTH 11 0
BBX 9 10 1 0
BITMAP
3e00
6300
4100
8080
8080
8080
8080
4100
6300
3e00
ENDCHAR
STARTCHAR P
ENCODING 80
SWIDTH 573 0
DWIDTH 8 0
BBX 7 10 1 0
BITMAP
fc
42
42
42
46
7c
40
40
40
e0
ENDCHAR
STARTCHAR Q
ENCODING 81
SWIDTH 778 0
DWIDTH 11 0
BBX 11 13 1 -3
BITMAP
3e00
6300
4100
8080
8080
8080
8080
4180
6300
3f00
0200
01c0
00e0
ENDCHAR
STARTCHAR R
ENCODING 82
SWIDTH 679 0
DWIDTH 9 0
BBX 9 10 0 0
BITMAP
fc00
4200
4200
4200
4400
7800
4c00
4400
4200
e180
ENDCHAR
STARTCHAR S
ENCODING 83
SWIDTH 542 0
DWIDTH 8 0
BBX 6 10 1 0
BITMAP
7c
84
84
c0
60
18
04
84
8c
f8
ENDCHAR
STARTCHAR T
ENCODING 84
SWIDTH 663 0
DWIDTH 9 0
BBX 9 10 0 0
BITMAP
ff80
0800
0800
0800
0800
0800
0800
0800
0800
1c00
ENDCHAR
STARTCHAR U
ENCODING 85
SWIDTH 719 0
DWIDTH 10 0
BBX 9 10 1 0
BITMAP
e380
4100
4100
4100
4100
4100
4100
4100
6300
3e00
ENDCHAR
STARTCHAR V
ENCODING 86
SWIDTH 699 0
DWIDTH 10 0
BBX 10 10 0 0
BITMAP
f1c0
6080
2080
2100
1100
1300
0a00
0a00
0c00
0400
ENDCHAR
STARTCHAR W
ENCODING 87
SWIDTH 925 0
DWIDTH 13 0
BBX 13 10 0 0
BITMAP
f238
4210
2710
2520
2520
2520
18c0
18c0
18c0
1040
ENDCHAR
STARTCHAR X
ENCODING 88
SWIDTH 657 0
DWIDTH 9 0
BBX 9 10 0 0
BITMAP
f380
2100
2200
1400
0c00
1c00
3400
2200
4300
e780
ENDCHAR
STARTCHAR Y
ENCODING 89
SWIDTH 678 0
DWIDTH 9 0
BBX 9 10 0 0
BITMAP
f380
6100
2300
1200
0c00
0800
0800
0800
0800
1c00
ENDCHAR
STARTCHAR Z
ENCODING 90
SWIDTH 633 0
DWIDTH 9 0
BBX 7 10 1 0
BITMAP
fe
84
0c
08
10
10
20
40
42
fe
ENDCHAR
STARTCHAR bracketleft
ENCODING 91
SWIDTH 316 0
DWIDTH 4 0
BBX 3 13 1 -3
BITMAP
e0
80
80
80
80
80
80
80
80
80
80
80
e0
ENDCHAR
STARTCHAR backslash
ENCODING 92
SWIDTH 512 0
DWIDTH 7 0
BBX 7 13 0 -3
BITMAP
80
40
40
20
20
30
10
18
08
08
04
04
02
ENDCHAR
STARTCHAR bracketright
ENCODING 93
SWIDTH 316 0
DWIDTH 4 0
BBX 3 13 0 -3
BITMAP
e0
20
20
20
20
20
20
20
20
20
20
20
e0
ENDCHAR
STARTCHAR asciicircum
ENCODING 94
SWIDTH 608 0
DWIDTH 9 0
BBX 8 8 0 2
BITMAP
08
18
18
24
24
42
42
81
ENDCHAR
STARTCHAR underscore
ENCODING 95
SWIDTH 500 0
DWIDTH 7 0
BBX 6 1 1 -2
BITMAP
fc
ENDCHAR
STARTCHAR grave
ENCODING 96
SWIDTH 602 0
DWIDTH 8 0
BBX 3 1 3 9
BITMAP
e0
ENDCHAR
STARTCHAR a
ENCODING 97
SWIDTH 543 0
DWIDTH 8 0
BBX 7 7 0 0
BITMAP
78
84
04
7c
84
84
7e
ENDCHAR
STARTCHAR b
ENCODING 98
SWIDTH 611 0
DWIDTH 9 0
BBX 8 10 0 0
BITMAP
c0
40
40
5e
63
41
41
41
42
7c
ENDCHAR
STARTCHAR c
ENCODING 99
SWIDTH 509 0
DWIDTH 7 0
BBX 6 7 1 0
BITMAP
3c
44
84
80
80
40
3c
ENDCHAR
STARTCHAR d
ENCODING 100
SWIDTH 642 0
DWIDTH 9 0
BBX 8 10 1 0
BITMAP
06
02
02
3e
42
82
82
82
c6
7b
ENDCHAR
STARTCHAR e
ENCODING 101
SWIDTH 530 0
DWIDTH 7 0
BBX 6 7 1 0
BITMAP
78
c4
84
fc
80
44
38
ENDCHAR
STARTCHAR f
ENCODING 102
SWIDTH 404 0
DWIDTH 6 0
BBX 5 11 1 0
BITMAP
38
48
48
40
f0
40
40
40
40
40
f0
ENDCHAR
STARTCHAR g
ENCODING 103
SWIDTH 571 0
DWIDTH 8 0
BBX 8 10 0 -3
BITMAP
3f
66
42
62
3c
40
7f
81
81
7e
ENDCHAR
STARTCHAR h
ENCODING 104
SWIDTH 633 0
DWIDTH 9 0
BBX 8 10 1 0
BITMAP
c0
40
40
5c
62
42
42
42
42
e7
ENDCHAR
STARTCHAR i
ENCODING 105
SWIDTH 307 0
DWIDTH 4 0
BBX 3 10 1 0
BITMAP
40
00
00
c0
40
40
40
40
40
e0
ENDCHAR
STARTCHAR j
ENCODING 106
SWIDTH 346 0
DWIDTH 5 0
BBX 4 13 0 -3
BITMAP
10
00
00
30
10
10
10
10
10
10
90
90
e0
ENDCHAR
STARTCHAR k
ENCODING 107
SWIDTH 599 0
DWIDTH 8 0
BBX 8 10 0 0
BITMAP
c0
40
40
4e
4c
58
60
58
4c
e7
ENDCHAR
STARTCHAR l
ENCODING 108
SWIDTH 313 0
DWIDTH 4 0
BBX 3 10 1 0
BITMAP
c0
40
40
40
40
40
40
40
40
e0
ENDCHAR
STARTCHAR m
ENCODING 109
SWIDTH 946 0
DWIDTH 13 0
BBX 13 7 0 0
BITMAP
dce0
6310
4210
4210
4210
4210
e738
ENDCHAR
STARTCHAR n
ENCODING 110
SWIDTH 633 0
DWIDTH 9 0
BBX 8 7 1 0
BITMAP
dc
62
42
42
42
42
e7
ENDCHAR
STARTCHAR o
ENCODING 111
SWIDTH 602 0
DWIDTH 8 0
BBX 7 7 1 0
BITMAP
38
44
82
82
82
44
38
ENDCHAR
STARTCHAR p
ENCODING 112
SWIDTH 642 0
DWIDTH 9 0
BBX 8 10 0 -3
BITMAP
de
63
41
41
41
42
7c
40
40
e0
ENDCHAR
STARTCHAR q
ENCODING 113
SWIDTH 617 0
DWIDTH 9 0
BBX 8 10 1 -3
BITMAP
3e
42
82
82
82
c6
7a
02
02
07
ENDCHAR
STARTCHAR r
ENCODING 114
SWIDTH 440 0
DWIDTH 6 0
BBX 5 7 0 0
BITMAP
f8
48
48
40
40
40
e0
ENDCHAR
STARTCHAR s
ENCODING 115
SWIDTH 504 0
DWIDTH 7 0
BBX 5 7 1 0
BITMAP
78
88
88
70
88
88
f0
ENDCHAR
STARTCHAR t
ENCODING 116
SWIDTH 392 0
DWIDTH 5 0
BBX 4 9 1 0
BITMAP
40
40
f0
40
40
40
40
40
70
ENDCHAR
STARTCHAR u
ENCODING 117
SWIDTH 633 0
DWIDTH 9 0
BBX 8 7 0 0
BITMAP
c6
42
42
42
42
46
3b
ENDCHAR
STARTCHAR v
ENCODING 118
SWIDTH 545 0
DWIDTH 8 0
BBX 8 7 0 0
BITMAP
e3
43
22
24
14
18
08
ENDCHAR
STARTCHAR w
ENCODING 119
SWIDTH 795 0
DWIDTH 11 0
BBX 11 7 0 0
BITMAP
e460
4460
4e40
2a40
2980
3180
1100
ENDCHAR
STARTCHAR x
ENCODING 120
SWIDTH 557 0
DWIDTH 8 0
BBX 8 7 0 0
BITMAP
e7
62
34
18
2c
46
e7
ENDCHAR
STARTCHAR y
ENCODING 121
SWIDTH 551 0
DWIDTH 8 0
BBX 8 10 0 -3
BITMAP
f3
43
22
26
14
1c
18
08
10
70
ENDCHAR
STARTCHAR z
ENCODING 122
SWIDTH 595 0
DWIDTH 8 0
BBX 6 7 1 0
BITMAP
fc
88
10
20
20
44
fc
ENDCHAR
STARTCHAR braceleft
ENCODING 123
SWIDTH 343 0
DWIDTH 5 0
BBX 4 13 0 -3
BITMAP
30
40
40
40
40
40
80
40
40
40
40
40
30
ENDCHAR
STARTCHAR bar
ENCODING 124
SWIDTH 241 0
DWIDTH 3 0
BBX 1 13 1 -3
BITMAP
80
80
80
80
80
80
80
80
80
80
80
80
80
ENDCHAR
STARTCHAR braceright
ENCODING 125
SWIDTH 343 0
DWIDTH 5 0
BBX 4 13 1 -3
BITMAP
c0
20
20
20
20
20
10
20
20
20
20
20
c0
ENDCHAR
STARTCHAR asciitilde
ENCODING 126
SWIDTH 608 0
DWIDTH 9 0
BBX 8 3 0 2
BITMAP
61
99
86
ENDCHAR
STARTCHAR nobreakspace
ENCODING 160
SWIDTH 333 0
DWIDTH 4 0
BBX 1 1 0 0
BITMAP
00
ENDCHAR
STARTCHAR Aogonek
ENCODING 161
SWIDTH 744 0
DWIDTH 10 0
BBX 10 11 0 -1
BITMAP
0800
0c00
1c00
1400
1200
2200
3f00
4100
4180
e3c0
0c00
ENDCHAR
STARTCHAR breve
ENCODING 162
SWIDTH 602 0
DWIDTH 8 0
BBX 5 1 2 9
BITMAP
f8
ENDCHAR
STARTCHAR Lstroke
ENCODING 163
SWIDTH 557 0
DWIDTH 8 0
BBX 7 10 0 0
BITMAP
e0
40
40
50
70
c0
c0
40
42
fe
ENDCHAR
STARTCHAR currency
ENCODING 164
SWIDTH 608 0
DWIDTH 9 0
BBX 8 8 0 1
BITMAP
81
5a
24
42
42
66
5a
81
ENDCHAR
STARTCHAR Lcaron
ENCODING 165
SWIDTH 557 0
DWIDTH 8 0
BBX 7 11 0 0
BITMAP
0c
e4
4c
40
40
40
40
40
40
42
fe
ENDCHAR
STARTCHAR Sacute
ENCODING 166
SWIDTH 542 0
DWIDTH 8 0
BBX 6 12 1 0
BITMAP
70
00
7c
84
84
c0
60
18
04
84
8c
f8
ENDCHAR
STARTCHAR section
ENCODING 167
SWIDTH 608 0
DWIDTH 9 0
BBX 6 13 1 -3
BITMAP
7c
c4
84
80
60
98
84
44
38
04
84
c4
f8
ENDCHAR
STARTCHAR diaeresis
ENCODING 168
SWIDTH 602 0
DWIDTH 8 0
BBX 4 1 2 9
BITMAP
90
ENDCHAR
STARTCHAR Scaron
ENCODING 169
SWIDTH 542 0
DWIDTH 8 0
BBX 6 12 1 0
BITMAP
f8
00
7c
84
84
c0
60
18
04
84
8c
f8
ENDCHAR
STARTCHAR Scedilla
ENCODING 170
SWIDTH 542 0
DWIDTH 8 0
BBX 6 13 1 -3
BITMAP
7c
84
84
c0
60
18
04
84
8c
f8
30
10
30
ENDCHAR
STARTCHAR Tcaron
ENCODING 171
SWIDTH 663 0
DWIDTH 9 0
BBX 9 12 0 0
BITMAP
3e00
0000
ff80
0800
0800
0800
0800
0800
0800
0800
0800
1c00
ENDCHAR
STARTCHAR Zacute
ENCODING 172
SWIDTH 633 0
DWIDTH 9 0
BBX 7 12 1 0
BITMAP
38
00
fe
84
0c
08
10
10
20
40
42
fe
ENDCHAR
STARTCHAR hyphen
ENCODING 173
SWIDTH 325 0
DWIDTH 5 0
BBX 3 1 1 4
BITMAP
e0
ENDCHAR
STARTCHAR Zcaron
ENCODING 174
SWIDTH 633 0
DWIDTH 9 0
BBX 7 12 1 0
BITMAP
7c
00
fe
84
0c
08
10
10
20
40
42
fe
ENDCHAR
STARTCHAR Zabovedot
ENCODING 175
SWIDTH 633 0
DWIDTH 9 0
BBX 7 12 1 0
BITMAP
10
00
fe
84
0c
08
10
10
20
40
42
fe
ENDCHAR
STARTCHAR degree
ENCODING 176
SWIDTH 259 0
DWIDTH 4 0
BBX 3 2 2 8
BITMAP
e0
60
ENDCHAR
STARTCHAR aogonek
ENCODING 177
SWIDTH 543 0
DWIDTH 8 0
BBX 7 8 0 -1
BITMAP
78
84
04
7c
84
84
7e
18
ENDCHAR
STARTCHAR ogonek
ENCODING 178
SWIDTH 602 0
DWIDTH 8 0
BBX 2 1 3 -3
BITMAP
c0
ENDCHAR
STARTCHAR lstroke
ENCODING 179
SWIDTH 313 0
DWIDTH 4 0
BBX 5 10 0 0
BITMAP
e0
20
20
28
38
e0
20
20
20
f8
ENDCHAR
STARTCHAR acute
ENCODING 180
SWIDTH 602 0
DWIDTH 8 0
BBX 3 1 3 9
BITMAP
e0
ENDCHAR
STARTCHAR lcaron
ENCODING 181
SWIDTH 432 0
DWIDTH 6 0
BBX 5 11 1 0
BITMAP
18
c8
58
40
40
40
40
40
40
40
e0
ENDCHAR
STARTCHAR sacute
ENCODING 182
SWIDTH 504 0
DWIDTH 7 0
BBX 5 9 1 0
BITMAP
70
00
78
88
88
70
88
88
f0
ENDCHAR
STARTCHAR caron
ENCODING 183
SWIDTH 602 0
DWIDTH 8 0
BBX 5 1 2 9
BITMAP
f8
ENDCHAR
STARTCHAR cedilla
ENCODING 184
SWIDTH 602 0
DWIDTH 8 0
BBX 2 3 3 -3
BITMAP
c0
40
c0
ENDCHAR
STARTCHAR scaron
ENCODING 185
SWIDTH 504 0
DWIDTH 7 0
BBX 5 9 1 0
BITMAP
f8
00
78
88
88
70
88
88
f0
ENDCHAR
STARTCHAR scedilla
ENCODING 186
SWIDTH 504 0
DWIDTH 7 0
BBX 5 10 1 -3
BITMAP
78
88
88
70
88
88
f0
30
10
30
ENDCHAR
STARTCHAR tcaron
ENCODING 187
SWIDTH 432 0
DWIDTH 6 0
BBX 5 11 1 0
BITMAP
18
08
58
40
f0
40
40
40
40
40
70
ENDCHAR
STARTCHAR zacute
ENCODING 188
SWIDTH 595 0
DWIDTH 8 0
BBX 6 9 1 0
BITMAP
70
00
fc
88
10
20
20
44
fc
ENDCHAR
STARTCHAR doubleacute
ENCODING 189
SWIDTH 602 0
DWIDTH 8 0
BBX 4 1 3 9
BITMAP
f0
ENDCHAR
STARTCHAR zcaron
ENCODING 190
SWIDTH 595 0
DWIDTH 8 0
BBX 6 9 1 0
BITMAP
f8
00
fc
88
10
20
20
44
fc
ENDCHAR
STARTCHAR zabovedot
ENCODING 191
SWIDTH 595 0
DWIDTH 8 0
BBX 6 9 1 0
BITMAP
20
00
fc
88
10
20
20
44
fc
ENDCHAR
STARTCHAR Racute
ENCODING 192
SWIDTH 679 0
DWIDTH 9 0
BBX 9 12 0 0
BITMAP
3800
0000
fc00
4200
4200
4200
4400
7800
4c00
4400
4200
e180
ENDCHAR
STARTCHAR Aacute
ENCODING 193
SWIDTH 744 0
DWIDTH 10 0
BBX 10 12 0 0
BITMAP
0e00
0000
0800
0c00
1c00
1400
1200
2200
3f00
4100
4180
e3c0
ENDCHAR
STARTCHAR Acircumflex
ENCODING 194
SWIDTH 744 0
DWIDTH 10 0
BBX 10 12 0 0
BITMAP
3e00
0000
0800
0c00
1c00
1400
1200
2200
3f00
4100
4180
e3c0
ENDCHAR
STARTCHAR Abreve
ENCODING 195
SWIDTH 744 0
DWIDTH 10 0
BBX 10 12 0 0
BITMAP
3e00
0000
0800
0c00
1c00
1400
1200
2200
3f00
4100
4180
e3c0
ENDCHAR
STARTCHAR Adiaeresis
ENCODING 196
SWIDTH 744 0
DWIDTH 10 0
BBX 10 12 0 0
BITMAP
1200
0000
0800
0c00
1c00
1400
1200
2200
3f00
4100
4180
e3c0
ENDCHAR
STARTCHAR Lacute
ENCODING 197
SWIDTH 557 0
DWIDTH 8 0
BBX 7 12 0 0
BITMAP
e0
00
e0
40
40
40
40
40
40
40
42
fe
ENDCHAR
STARTCHAR Cacute
ENCODING 198
SWIDTH 695 0
DWIDTH 10 0
BBX 8 12 1 0
BITMAP
1c
00
1f
61
41
80
80
80
80
40
61
3e
ENDCHAR
STARTCHAR Ccedilla
ENCODING 199
SWIDTH 695 0
DWIDTH 10 0
BBX 8 13 1 -3
BITMAP
1f
61
41
80
80
80
80
40
61
3e
08
08
18
ENDCHAR
STARTCHAR Ccaron
ENCODING 200
SWIDTH 695 0
DWIDTH 10 0
BBX 8 12 1 0
BITMAP
3e
00
1f
61
41
80
80
80
80
40
61
3e
ENDCHAR
STARTCHAR Eacute
ENCODING 201
SWIDTH 566 0
DWIDTH 8 0
BBX 6 12 1 0
BITMAP
38
00
fc
44
40
48
78
48
40
40
44
fc
ENDCHAR
STARTCHAR Eogonek
ENCODING 202
SWIDTH 566 0
DWIDTH 8 0
BBX 6 11 1 -1
BITMAP
fc
44
40
48
78
48
40
40
44
fc
30
ENDCHAR
STARTCHAR Ediaeresis
ENCODING 203
SWIDTH 566 0
DWIDTH 8 0
BBX 6 12 1 0
BITMAP
48
00
fc
44
40
48
78
48
40
40
44
fc
ENDCHAR
STARTCHAR Ecaron
ENCODING 204
SWIDTH 566 0
DWIDTH 8 0
BBX 6 12 1 0
BITMAP
f8
00
fc
44
40
48
78
48
40
40
44
fc
ENDCHAR
STARTCHAR Iacute
ENCODING 205
SWIDTH 325 0
DWIDTH 5 0
BBX 3 12 1 0
BITMAP
e0
00
e0
40
40
40
40
40
40
40
40
e0
ENDCHAR
STARTCHAR Icircumflex
ENCODING 206
SWIDTH 325 0
DWIDTH 5 0
BBX 5 12 2 0
BITMAP
f8
00
70
20
20
20
20
20
20
20
20
70
ENDCHAR
STARTCHAR Dcaron
ENCODING 207
SWIDTH 768 0
DWIDTH 11 0
BBX 9 12 1 0
BITMAP
7c00
0000
fe00
4300
4180
4080
4080
4080
4080
4080
4100
fe00
ENDCHAR
STARTCHAR Dstroke
ENCODING 208
SWIDTH 768 0
DWIDTH 11 0
BBX 9 10 1 0
BITMAP
fe00
4300
4180
4080
f080
4080
4080
4080
4100
fe00
ENDCHAR
STARTCHAR Nacute
ENCODING 209
SWIDTH 751 0
DWIDTH 11 0
BBX 9 12 1 0
BITMAP
1c00
0000
c380
6100
7100
5100
4900
4d00
4500
4300
4100
e100
ENDCHAR
STARTCHAR Ncaron
ENCODING 210
SWIDTH 751 0
DWIDTH 11 0
BBX 9 12 1 0
BITMAP
3e00
0000
c380
6100
7100
5100
4900
4d00
4500
4300
4100
e100
ENDCHAR
STARTCHAR Oacute
ENCODING 211
SWIDTH 777 0
DWIDTH 11 0
BBX 9 12 1 0
BITMAP
1c00
0000
3e00
6300
4100
8080
8080
8080
8080
4100
6300
3e00
ENDCHAR
STARTCHAR Ocircumflex
ENCODING 212
SWIDTH 777 0
DWIDTH 11 0
BBX 9 12 1 0
BITMAP
3e00
0000
3e00
6300
4100
8080
8080
8080
8080
4100
6300
3e00
ENDCHAR
STARTCHAR Odoubleacute
ENCODING 213
SWIDTH 777 0
DWIDTH 11 0
BBX 9 12 1 0
BITMAP
1e00
0000
3e00
6300
4100
8080
8080
8080
8080
4100
6300
3e00
ENDCHAR
STARTCHAR Odiaeresis
ENCODING 214
SWIDTH 777 0
DWIDTH 11 0
BBX 9 12 1 0
BITMAP
2400
0000
3e00
6300
4100
8080
8080
8080
8080
4100
6300
3e00
ENDCHAR
STARTCHAR multiply
ENCODING 215
SWIDTH 608 0
DWIDTH 9 0
BBX 8 8 0 0
BITMAP
81
42
24
18
18
24
42
81
ENDCHAR
STARTCHAR Rcaron
ENCODING 216
SWIDTH 679 0
DWIDTH 9 0
BBX 9 12 0 0
BITMAP
7c00
0000
fc00
4200
4200
4200
4400
7800
4c00
4400
4200
e180
ENDCHAR
STARTCHAR Uring
ENCODING 217
SWIDTH 719 0
DWIDTH 10 0
BBX 9 14 1 0
BITMAP
0c00
1200
0c00
0000
e380
4100
4100
4100
4100
4100
4100
4100
6300
3e00
ENDCHAR
STARTCHAR Uacute
ENCODING 218
SWIDTH 719 0
DWIDTH 10 0
BBX 9 12 1 0
BITMAP
1c00
0000
e380
4100
4100
4100
4100
4100
4100
4100
6300
3e00
ENDCHAR
STARTCHAR Udoubleacute
ENCODING 219
SWIDTH 719 0
DWIDTH 10 0
BBX 9 12 1 0
BITMAP
1e00
0000
e380
4100
4100
4100
4100
4100
4100
4100
6300
3e00
ENDCHAR
STARTCHAR Udiaeresis
ENCODING 220
SWIDTH 719 0
DWIDTH 10 0
BBX 9 12 1 0
BITMAP
1200
0000
e380
4100
4100
4100
4100
4100
4100
4100
6300
3e00
ENDCHAR
STARTCHAR Yacute
ENCODING 221
SWIDTH 678 0
DWIDTH 9 0
BBX 9 12 0 0
BITMAP
1c00
0000
f380
6100
2300
1200
0c00
0800
0800
0800
0800
1c00
ENDCHAR
STARTCHAR Tcedilla
ENCODING 222
SWIDTH 663 0
DWIDTH 9 0
BBX 9 13 0 -3
BITMAP
ff80
0800
0800
0800
0800
0800
0800
0800
0800
1c00
0c00
0400
0c00
ENDCHAR
STARTCHAR ssharp
ENCODING 223
SWIDTH 614 0
DWIDTH 9 0
BBX 6 11 1 0
BITMAP
30
48
48
50
50
50
48
4c
44
54
f8
ENDCHAR
STARTCHAR racute
ENCODING 224
SWIDTH 440 0
DWIDTH 6 0
BBX 5 9 0 0
BITMAP
70
00
f8
48
48
40
40
40
e0
ENDCHAR
STARTCHAR aacute
ENCODING 225
SWIDTH 543 0
DWIDTH 8 0
BBX 7 9 0 0
BITMAP
38
00
78
84
04
7c
84
84
7e
ENDCHAR
STARTCHAR acircumflex
ENCODING 226
SWIDTH 543 0
DWIDTH 8 0
BBX 7 9 0 0
BITMAP
7c
00
78
84
04
7c
84
84
7e
ENDCHAR
STARTCHAR abreve
ENCODING 227
SWIDTH 543 0
DWIDTH 8 0
BBX 7 9 0 0
BITMAP
f8
00
78
84
04
7c
84
84
7e
ENDCHAR
STARTCHAR adiaeresis
ENCODING 228
SWIDTH 543 0
DWIDTH 8 0
BBX 7 9 0 0
BITMAP
48
00
78
84
04
7c
84
84
7e
ENDCHAR
STARTCHAR lacute
ENCODING 229
SWIDTH 313 0
DWIDTH 4 0
BBX 4 12 0 0
BITMAP
e0
00
60
20
20
20
20
20
20
20
20
70
ENDCHAR
STARTCHAR cacute
ENCODING 230
SWIDTH 509 0
DWIDTH 7 0
BBX 6 9 1 0
BITMAP
38
00
3c
44
84
80
80
40
3c
ENDCHAR
STARTCHAR ccedilla
ENCODING 231
SWIDTH 509 0
DWIDTH 7 0
BBX 6 10 1 -3
BITMAP
3c
44
84
80
80
40
3c
10
10
30
ENDCHAR
STARTCHAR ccaron
ENCODING 232
SWIDTH 509 0
DWIDTH 7 0
BBX 6 9 1 0
BITMAP
7c
00
3c
44
84
80
80
40
3c
ENDCHAR
STARTCHAR eacute
ENCODING 233
SWIDTH 530 0
DWIDTH 7 0
BBX 6 9 1 0
BITMAP
38
00
78
c4
84
fc
80
44
38
ENDCHAR
STARTCHAR eogonek
ENCODING 234
SWIDTH 530 0
DWIDTH 7 0
BBX 6 8 1 -1
BITMAP
78
c4
84
fc
80
44
38
30
ENDCHAR
STARTCHAR ediaeresis
ENCODING 235
SWIDTH 530 0
DWIDTH 7 0
BBX 6 9 1 0
BITMAP
48
00
78
c4
84
fc
80
44
38
ENDCHAR
STARTCHAR ecaron
ENCODING 236
SWIDTH 530 0
DWIDTH 7 0
BBX 6 9 1 0
BITMAP
f8
00
78
c4
84
fc
80
44
38
ENDCHAR
STARTCHAR iacute
ENCODING 237
SWIDTH 307 0
DWIDTH 4 0
BBX 3 9 1 0
BITMAP
e0
00
c0
40
40
40
40
40
e0
ENDCHAR
STARTCHAR icircumflex
ENCODING 238
SWIDTH 307 0
DWIDTH 4 0
BBX 5 9 2 0
BITMAP
f8
00
60
20
20
20
20
20
70
ENDCHAR
STARTCHAR dcaron
ENCODING 239
SWIDTH 792 0
DWIDTH 11 0
BBX 10 11 1 0
BITMAP
00c0
0640
02c0
0200
3e00
4200
8200
8200
8200
c600
7b00
ENDCHAR
STARTCHAR dstroke
ENCODING 240
SWIDTH 720 0
DWIDTH 10 0
BBX 9 10 1 0
BITMAP
0200
0f80
0200
3e00
4200
8200
8200
8200
c600
7b00
ENDCHAR
STARTCHAR nacute
ENCODING 241
SWIDTH 633 0
DWIDTH 9 0
BBX 8 9 1 0
BITMAP
38
00
dc
62
42
42
42
42
e7
ENDCHAR
STARTCHAR ncaron
ENCODING 242
SWIDTH 633 0
DWIDTH 9 0
BBX 8 9 1 0
BITMAP
7c
00
dc
62
42
42
42
42
e7
ENDCHAR
STARTCHAR oacute
ENCODING 243
SWIDTH 602 0
DWIDTH 8 0
BBX 7 9 1 0
BITMAP
38
00
38
44
82
82
82
44
38
ENDCHAR
STARTCHAR ocircumflex
ENCODING 244
SWIDTH 602 0
DWIDTH 8 0
BBX 7 9 1 0
BITMAP
7c
00
38
44
82
82
82
44
38
ENDCHAR
STARTCHAR odoubleacute
ENCODING 245
SWIDTH 602 0
DWIDTH 8 0
BBX 7 9 1 0
BITMAP
3c
00
38
44
82
82
82
44
38
ENDCHAR
STARTCHAR odiaeresis
ENCODING 246
SWIDTH 602 0
DWIDTH 8 0
BBX 7 9 1 0
BITMAP
48
00
38
44
82
82
82
44
38
ENDCHAR
STARTCHAR division
ENCODING 247
SWIDTH 608 0
DWIDTH 9 0
BBX 7 7 1 0
BITMAP
10
00
00
fe
00
00
10
ENDCHAR
STARTCHAR rcaron
ENCODING 248
SWIDTH 440 0
DWIDTH 6 0
BBX 5 9 0 0
BITMAP
f8
00
f8
48
48
40
40
40
e0
ENDCHAR
STARTCHAR uring
ENCODING 249
SWIDTH 633 0
DWIDTH 9 0
BBX 8 11 0 0
BITMAP
18
24
18
00
c6
42
42
42
42
46
3b
ENDCHAR
STARTCHAR uacute
ENCODING 250
SWIDTH 633 0
DWIDTH 9 0
BBX 8 9 0 0
BITMAP
1c
00
c6
42
42
42
42
46
3b
ENDCHAR
STARTCHAR udoubleacute
ENCODING 251
SWIDTH 633 0
DWIDTH 9 0
BBX 8 9 0 0
BITMAP
3c
00
c6
42
42
42
42
46
3b
ENDCHAR
STARTCHAR udiaeresis
ENCODING 252
SWIDTH 633 0
DWIDTH 9 0
BBX 8 9 0 0
BITMAP
24
00
c6
42
42
42
42
46
3b
ENDCHAR
STARTCHAR yacute
ENCODING 253
SWIDTH 551 0
DWIDTH 8 0
BBX 8 12 0 -3
BITMAP
1c
00
f3
43
22
26
14
1c
18
08
10
70
ENDCHAR
STARTCHAR tcedilla
ENCODING 254
SWIDTH 392 0
DWIDTH 5 0
BBX 4 12 1 -3
BITMAP
40
40
f0
40
40
40
40
40
70
60
20
60
ENDCHAR
STARTCHAR abovedot
ENCODING 255
SWIDTH 602 0
DWIDTH 8 0
BBX 1 1 4 9
BITMAP
80
ENDCHAR
ENDFONT
